<svg width="14" height="14" viewBox="0 0 14 14" fill="none" xmlns="http://www.w3.org/2000/svg">
<path d="M7 0C3.14 0 0 3.14 0 7C0 10.86 3.14 14 7 14C10.86 14 14 10.86 14 7C14 3.14 10.86 0 7 0ZM7 12C4.243 12 2 9.757 2 7C2 4.243 4.243 2 7 2C9.757 2 12 4.243 12 7C12 9.757 9.757 12 7 12Z" fill="#FFAE04"/>
<path d="M7.00012 2C4.24312 2 2.00012 4.243 2.00012 7C2.00012 9.757 4.24312 12 7.00012 12C9.75712 12 12.0001 9.757 12.0001 7C12.0001 4.243 9.75712 2 7.00012 2ZM9.12212 7.636L8.54712 7.949C8.29512 8.0865 8.08862 8.2925 7.95062 8.544L7.63512 9.117C7.50762 9.349 7.26462 9.4925 7.00012 9.4925C6.73562 9.4925 6.49262 9.3485 6.36512 9.117L6.05012 8.5435C5.91162 8.2915 5.70512 8.0855 5.45262 7.948L4.87862 7.6355C4.64462 7.5095 4.50012 7.2655 4.50012 7C4.50012 6.7345 4.64462 6.4905 4.87812 6.364L5.45312 6.051C5.70512 5.9135 5.91162 5.7075 6.04962 5.456L6.36512 4.883C6.49262 4.651 6.73562 4.5075 7.00012 4.5075C7.26462 4.5075 7.50762 4.6515 7.63512 4.883L7.95012 5.4565C8.08862 5.708 8.29512 5.914 8.54712 6.0515L9.12162 6.364C9.35562 6.4905 9.50012 6.7345 9.50012 7C9.50012 7.2655 9.35562 7.5095 9.12212 7.636Z" fill="#F88B26"/>
<path d="M9.1215 6.36352L8.547 6.05102C8.295 5.91352 8.0885 5.70752 7.95 5.45602L7.635 4.88252C7.5075 4.65102 7.2645 4.50702 7 4.50702C6.7355 4.50702 6.4925 4.65102 6.365 4.88252L6.05 5.45552C5.912 5.70752 5.7055 5.91352 5.4535 6.05052L4.8785 6.36352C4.6445 6.49052 4.5 6.73452 4.5 7.00002C4.5 7.26552 4.6445 7.50952 4.8785 7.63652L5.4525 7.94902C5.705 8.08652 5.9115 8.29252 6.05 8.54452L6.365 9.11802C6.4925 9.34952 6.7355 9.49352 7 9.49352C7.2645 9.49352 7.5075 9.34952 7.635 9.11802L7.9505 8.54502C8.0885 8.29302 8.295 8.08702 8.547 7.95002L9.122 7.63702C9.3555 7.50952 9.5 7.26552 9.5 7.00002C9.5 6.73452 9.3555 6.49052 9.1215 6.36352Z" fill="#E4EDF2"/>
</svg>
