<svg width="166" height="20" viewBox="0 0 166 20" fill="none" xmlns="http://www.w3.org/2000/svg">
<path d="M31.4434 15.0154C30.2846 15.0154 29.2977 14.7966 28.4827 14.3588C27.7014 13.9497 27.0584 13.3187 26.6345 12.5453C26.201 11.7263 25.983 10.8105 26.001 9.88402C25.989 8.96281 26.2476 8.05832 26.7446 7.28259C27.2413 6.50921 27.9256 5.87407 28.7338 5.43629C29.5842 4.9716 30.5401 4.73412 31.509 4.74682C32.879 4.74682 34.0049 5.14402 34.8868 5.93842C35.7688 6.73282 36.3405 7.88064 36.6018 9.38189L29.1703 11.7419L28.4924 10.081L33.871 8.26754L33.2356 8.55144C33.1184 8.17144 32.9041 7.8286 32.6137 7.55684C32.3137 7.27229 31.8631 7.13002 31.2618 7.13002C30.8428 7.12144 30.4298 7.23122 30.0702 7.44675C29.7255 7.66182 29.4515 7.97342 29.2823 8.34286C29.0917 8.77296 28.9987 9.23992 29.01 9.71021C28.992 10.2288 29.1049 10.7435 29.3383 11.207C29.5405 11.5916 29.8524 11.9075 30.2344 12.1146C30.6246 12.3206 31.0602 12.4255 31.5013 12.4198C31.831 12.4195 32.1579 12.3607 32.467 12.246C32.7908 12.1234 33.102 11.9694 33.3959 11.7863L34.7478 14.0594C34.2264 14.3558 33.6722 14.5904 33.0966 14.7586C32.5606 14.9228 32.0039 15.0094 31.4434 15.0154Z" fill="white"/>
<path d="M41.6734 14.9496C40.9214 14.9558 40.1754 14.8147 39.4775 14.5344C38.8281 14.2769 38.2424 13.8816 37.7606 13.3756L39.0295 11.6935C39.4136 12.0605 39.852 12.366 40.3292 12.5993C40.8691 12.8758 41.4917 12.9445 42.079 12.7924C42.2528 12.7526 42.414 12.6703 42.5483 12.5529C42.6059 12.4982 42.6511 12.4318 42.6811 12.3582C42.7111 12.2846 42.725 12.2055 42.7221 12.1261C42.7252 12.0111 42.7001 11.8971 42.6489 11.794C42.5978 11.691 42.5221 11.6021 42.4285 11.5351C42.1986 11.3742 41.9433 11.2528 41.6734 11.1759C41.3683 11.0819 41.0406 10.9834 40.6904 10.8804C39.8149 10.6036 39.1846 10.1993 38.7996 9.66759C38.4236 9.16614 38.2203 8.55624 38.2203 7.92944C38.2266 7.37916 38.3798 6.84056 38.664 6.3693C38.9481 5.89804 39.353 5.51122 39.8367 5.24882C40.3968 4.92308 41.1217 4.75956 42.0114 4.75828C42.6971 4.74366 43.3815 4.82426 44.045 4.99776C44.6117 5.16491 45.144 5.43173 45.6171 5.78572L44.4583 7.57794C44.1728 7.35441 43.8608 7.16695 43.5293 7.01981C43.2299 6.87892 42.9072 6.79383 42.5772 6.76874C42.3515 6.75013 42.1244 6.77976 41.9109 6.85565C41.7486 6.91589 41.6024 7.01309 41.4841 7.13955C41.3886 7.24047 41.3342 7.37338 41.3316 7.51228C41.3203 7.63984 41.3438 7.76808 41.3995 7.88335C41.4553 7.99863 41.5413 8.09664 41.6483 8.16698C41.91 8.34449 42.2029 8.47095 42.5116 8.53972C42.8611 8.62663 43.2049 8.73285 43.539 8.84486C43.97 8.97395 44.3766 9.17365 44.7422 9.43583C45.063 9.66879 45.327 9.97115 45.5147 10.3204C45.707 10.7033 45.8012 11.128 45.7889 11.5564C45.79 12.1363 45.6352 12.706 45.3409 13.2057C45.019 13.7448 44.55 14.181 43.989 14.4629C43.2685 14.8121 42.4734 14.9792 41.6734 14.9496Z" fill="white"/>
<path d="M54.0664 15.0155C53.4947 15.0143 52.9283 14.9069 52.3959 14.6987C51.8761 14.5058 51.4081 14.1951 51.0285 13.791L51.1173 12.8949V19.3473H48.0775V4.98246H50.7002L51.1386 6.84035L50.8972 6.18372C51.3996 5.75903 51.9586 5.4061 52.5581 5.13504C53.2284 4.84652 53.9528 4.70493 54.6825 4.71981C55.5189 4.70624 56.3431 4.92197 57.0657 5.34361C57.7762 5.77079 58.3493 6.39279 58.7169 7.13584C59.1381 8.0106 59.3441 8.97339 59.3176 9.94392C59.347 10.9066 59.1126 11.8589 58.6397 12.6979C58.2026 13.4428 57.5566 14.0431 56.7818 14.4245C55.9355 14.8317 55.0054 15.0342 54.0664 15.0155ZM53.4561 12.611C53.9313 12.6152 54.4002 12.5025 54.8215 12.2827C55.2332 12.0675 55.5804 11.7469 55.8277 11.3537C56.0864 10.9458 56.2206 10.4713 56.214 9.98834C56.2255 9.49681 56.1083 9.01081 55.8741 8.5785C55.6579 8.18674 55.3395 7.86094 54.9528 7.6358C54.5661 7.41066 54.1256 7.29461 53.6782 7.3C53.3104 7.29334 52.9441 7.34884 52.5948 7.46416C52.2891 7.56835 52.0069 7.73175 51.7643 7.94504C51.5115 8.17206 51.301 8.44212 51.1425 8.74266V11.0814C51.2548 11.3811 51.4255 11.6555 51.6446 11.8887C51.8669 12.1252 52.1394 12.3087 52.4422 12.4256C52.7655 12.5508 53.1095 12.6137 53.4561 12.611Z" fill="white"/>
<path d="M60.7119 9.85673C60.6968 8.93582 60.9354 8.02851 61.4014 7.23406C61.8629 6.45795 62.5317 5.82593 63.3327 5.409C64.2169 4.95158 65.2013 4.72191 66.1967 4.74078C67.1853 4.71634 68.1636 4.94644 69.0377 5.409C69.8151 5.82876 70.4563 6.46199 70.8859 7.23406C71.3233 8.03809 71.5455 8.94153 71.5309 9.85673C71.5445 10.7755 71.3225 11.6825 70.8859 12.491C70.4564 13.2685 69.8156 13.9086 69.0377 14.3373C68.1509 14.8096 67.1566 15.0432 66.1523 15.0152C65.1814 15.0322 64.2199 14.8225 63.3442 14.403C62.5424 14.0123 61.8714 13.397 61.413 12.632C60.9281 11.7891 60.6855 10.8287 60.7119 9.85673ZM63.802 9.87798C63.7941 10.3465 63.8987 10.8101 64.1071 11.2299C64.2964 11.6141 64.5826 11.9422 64.9375 12.182C65.2876 12.4143 65.6994 12.536 66.1195 12.5316C66.5603 12.5423 66.9943 12.4205 67.3652 12.182C67.717 11.9447 67.9969 11.6153 68.1744 11.2299C68.3622 10.8039 68.4592 10.3435 68.4592 9.87798C68.4592 9.41245 68.3622 8.95204 68.1744 8.52608C67.9942 8.14599 67.7146 7.82167 67.3652 7.58748C66.9947 7.34806 66.5605 7.22621 66.1195 7.23792C65.6993 7.23247 65.2872 7.35433 64.9375 7.58748C64.5853 7.82454 64.2995 8.14761 64.1071 8.52608C63.8949 8.9468 63.7875 9.4126 63.7942 9.88377L63.802 9.87798Z" fill="white"/>
<path d="M76.4287 5.2007L76.7126 7.82338L76.6469 7.43712C76.9174 6.87642 77.3054 6.38046 77.7844 5.98287C78.2187 5.61234 78.6998 5.30065 79.2155 5.05586C79.551 4.87647 79.9185 4.76491 80.297 4.72754L80.1445 7.78862C79.5102 7.68456 78.8595 7.8084 78.3078 8.13818C77.8082 8.4473 77.4007 8.88482 77.1278 9.4051C76.8584 9.90221 76.7158 10.4581 76.7126 11.0235V14.7605H73.6747V5.2007H76.4287Z" fill="white"/>
<path d="M83.2693 1H86.3304V5.15225H88.6479V7.53544H86.3304V14.7488H83.2693V7.53931H81.7842V5.15611H83.2693V1Z" fill="white"/>
<path d="M93.8276 14.9496C93.0749 14.956 92.3283 14.8149 91.6298 14.5344C90.9808 14.2772 90.3956 13.8817 89.9148 13.3756L91.1817 11.6935C91.5669 12.06 92.0059 12.3655 92.4834 12.5993C93.0199 12.8733 93.638 12.942 94.2215 12.7924C94.3961 12.753 94.5581 12.6707 94.6928 12.5529C94.7504 12.4982 94.7957 12.4318 94.8256 12.3582C94.8556 12.2846 94.8696 12.2055 94.8666 12.1261C94.8699 12.0109 94.8446 11.8966 94.7931 11.7935C94.7415 11.6904 94.6653 11.6016 94.5711 11.5351C94.3418 11.3742 94.0873 11.2528 93.8179 11.1759C93.5108 11.0813 93.1844 10.9828 92.8349 10.8804C91.9607 10.6036 91.3304 10.1993 90.9442 9.66759C90.5681 9.16614 90.3648 8.55624 90.3648 7.92944C90.3723 7.37942 90.526 6.8413 90.8101 6.37025C91.0941 5.89919 91.4983 5.51216 91.9813 5.24882C92.5439 4.92308 93.2694 4.75956 94.1578 4.75828C94.8429 4.74366 95.5266 4.82426 96.1895 4.99776C96.757 5.16446 97.29 5.43131 97.7635 5.78572L96.6047 7.57794C96.3195 7.35399 96.0075 7.1665 95.6758 7.01981C95.3771 6.87877 95.055 6.79368 94.7256 6.76874C94.4999 6.75013 94.2727 6.77976 94.0593 6.85565C93.8967 6.91537 93.7505 7.01264 93.6325 7.13954C93.537 7.24047 93.4826 7.37338 93.4799 7.51228C93.4687 7.63984 93.4922 7.76808 93.5479 7.88335C93.6037 7.99863 93.6897 8.09664 93.7967 8.16698C94.0584 8.34448 94.3513 8.47095 94.6599 8.53972C95.0089 8.62727 95.3513 8.72898 95.6874 8.84486C96.1178 8.97395 96.5237 9.17366 96.8886 9.43583C97.2286 9.67272 97.5032 9.99168 97.6868 10.3631C97.8705 10.7345 97.9573 11.1463 97.9393 11.5602C97.9393 12.1401 97.7847 12.7094 97.4912 13.2096C97.1693 13.7487 96.7004 14.1849 96.1393 14.4668C95.4197 14.814 94.626 14.9797 93.8276 14.9496Z" fill="white"/>
<path d="M104.778 19.2332C104.18 19.2431 103.583 19.1663 103.007 19.0053C102.516 18.8596 102.048 18.6422 101.62 18.3602C101.199 18.0781 100.801 17.7637 100.429 17.4197L101.609 16.0427C102.043 16.4614 102.536 16.8147 103.073 17.0914C103.59 17.3444 104.16 17.4721 104.736 17.4641C105.333 17.4818 105.927 17.3657 106.474 17.1242C106.919 16.9228 107.295 16.5959 107.557 16.1837C107.809 15.7657 107.938 15.285 107.928 14.797L107.949 12.3482L108.125 12.7344C107.829 13.3986 107.332 13.9527 106.703 14.3181C105.952 14.7662 105.087 14.99 104.212 14.9631C103.406 14.9702 102.615 14.7507 101.927 14.3297C100.855 13.6402 100.088 12.5654 99.7852 11.327C99.4823 10.0886 99.6663 8.78112 100.299 7.67447C100.722 6.96642 101.316 6.376 102.026 5.95757C102.733 5.53682 103.542 5.31775 104.365 5.32411C105.126 5.31892 105.878 5.49152 106.561 5.82817C107.157 6.09631 107.661 6.5326 108.013 7.0835L107.905 7.45624L108.123 5.7065H109.981V14.8221C109.988 15.611 109.768 16.3853 109.347 17.0528C108.907 17.738 108.287 18.2896 107.555 18.648C106.689 19.0604 105.737 19.261 104.778 19.2332ZM101.674 10.1407C101.669 10.6999 101.812 11.2506 102.09 11.736C102.361 12.2114 102.755 12.6055 103.231 12.8772C103.706 13.1489 104.246 13.2883 104.793 13.281C105.294 13.2893 105.79 13.1884 106.248 12.9855C106.664 12.7995 107.033 12.5231 107.329 12.1763C107.622 11.8316 107.832 11.4238 107.941 10.9847V9.19246C107.815 8.76453 107.591 8.37182 107.287 8.04528C106.981 7.71386 106.608 7.45064 106.194 7.27277C105.75 7.0871 105.274 6.99441 104.793 7.00046C104.241 6.99079 103.696 7.12383 103.21 7.38671C102.741 7.64517 102.351 8.02723 102.084 8.4914C101.8 8.99365 101.658 9.56392 101.674 10.1407Z" fill="white"/>
<path d="M115.052 5.70259L115.245 8.32719L115.137 7.9757C115.363 7.43431 115.71 6.95244 116.153 6.5678C116.571 6.19849 117.043 5.89561 117.553 5.66975C117.954 5.4795 118.389 5.37179 118.832 5.35303L118.724 7.37314C118.097 7.31448 117.468 7.44929 116.92 7.7594C116.413 8.05548 115.992 8.4772 115.695 8.98383C115.401 9.48003 115.246 10.0465 115.247 10.6235V14.7545H113.237V5.70259H115.052Z" fill="white"/>
<path d="M124.734 14.9709C123.932 14.9812 123.14 14.7935 122.428 14.4243C121.736 14.0614 121.166 13.5025 120.79 12.8175C120.389 12.0085 120.182 11.1166 120.188 10.2134C120.193 9.31017 120.41 8.4208 120.821 7.61658C121.219 6.90583 121.806 6.31945 122.517 5.92284C123.225 5.52909 124.024 5.32549 124.834 5.33187C125.59 5.30709 126.336 5.50886 126.976 5.91126C127.52 6.25765 127.977 6.72492 128.311 7.27667L128.179 7.62623L128.372 5.69495H130.252V14.7449H128.231V12.3946L128.452 12.9179C128.352 13.1225 128.222 13.3107 128.065 13.4761C127.83 13.7356 127.566 13.967 127.277 14.1655C126.93 14.4084 126.551 14.6033 126.152 14.7449C125.696 14.9027 125.216 14.9791 124.734 14.9709ZM125.28 13.2887C125.755 13.2963 126.225 13.1993 126.657 13.0048C127.055 12.8238 127.404 12.5503 127.675 12.2072C127.953 11.8433 128.143 11.4204 128.231 10.9712V9.20022C128.121 8.77519 127.912 8.38217 127.621 8.05304C127.33 7.72316 126.972 7.45969 126.571 7.28053C126.144 7.09541 125.683 7.00261 125.219 7.00822C124.698 7.00113 124.185 7.13456 123.734 7.39448C123.282 7.65635 122.909 8.03364 122.652 8.48758C122.373 8.98823 122.233 9.55431 122.246 10.1272C122.241 10.6864 122.384 11.2371 122.662 11.7225C122.928 12.1927 123.313 12.585 123.778 12.86C124.23 13.1378 124.75 13.2861 125.28 13.2887Z" fill="white"/>
<path d="M137.194 15.0153L132.173 5.70264H134.578L137.986 12.8947L136.741 12.8503L139.867 5.70456H142.14L137.312 15.0172L137.194 15.0153Z" fill="white"/>
<path d="M143.904 2.42537C143.902 2.27004 143.937 2.11649 144.004 1.97631C144.071 1.83613 144.168 1.71298 144.29 1.61616C144.521 1.40708 144.82 1.29022 145.132 1.28784C145.438 1.28779 145.731 1.40536 145.953 1.61616C146.068 1.71686 146.159 1.84141 146.222 1.98116C146.284 2.12091 146.314 2.27249 146.312 2.42537C146.317 2.57997 146.287 2.73369 146.225 2.87534C146.163 3.01698 146.07 3.143 145.953 3.24423C145.729 3.44947 145.436 3.56259 145.132 3.56096C144.82 3.55949 144.52 3.44251 144.29 3.23264C144.168 3.13621 144.071 3.01342 144.004 2.87355C143.937 2.73368 143.902 2.58042 143.904 2.42537ZM144.058 5.70854H146.09V14.7585H144.058V5.70854Z" fill="white"/>
<path d="M150.221 1.72632H152.254V5.74724H154.748V7.34247H152.256V14.7528H150.221V7.34247H148.568V5.74724H150.229L150.221 1.72632Z" fill="white"/>
<path d="M159.927 14.8183L155.576 5.70264H157.873L161.523 13.7908L159.927 14.8183ZM157.697 19.1018L163.664 5.70264H165.544L159.707 19.1018H157.697Z" fill="white"/>
<path d="M8.22722 1.55551C6.51311 1.55065 4.83676 2.05889 3.41394 3.01482C4.49014 1.95133 5.78459 1.13441 7.20768 0.620599C8.63078 0.106784 10.1485 -0.0916541 11.6559 0.0390225C13.1633 0.169699 14.6242 0.62637 15.9377 1.37742C17.2511 2.12847 18.3856 3.15597 19.2628 4.38879L15.6681 5.79777C14.9039 4.50457 13.8156 3.43307 12.5107 2.68909C11.2058 1.94512 9.72934 1.55439 8.22722 1.55551Z" fill="url(#paint0_linear_2280_440)"/>
<path d="M20.5865 7.1106L8.70641 11.576L16.7884 11.4032C16.6112 12.6516 16.1634 13.8463 15.4764 14.9036C14.7893 15.961 13.8796 16.8555 12.8108 17.5246C11.742 18.1937 10.54 18.6212 9.28875 18.7774C8.0375 18.9335 6.76725 18.8144 5.56683 18.4284C7.15152 19.3321 8.94528 19.8051 10.7696 19.8002C16.4186 19.8002 21 15.3676 21 9.90011C21.0006 8.95496 20.8612 8.01493 20.5865 7.1106Z" fill="url(#paint1_linear_2280_440)"/>
<path d="M4.92799 12.414L14.5874 8.66834L4.12505 9.64194C4.0441 6.50018 6.54919 3.41968 10.2904 2.352C8.86781 1.9615 7.36578 1.96512 5.94506 2.36247C4.52434 2.75982 3.23838 3.53595 2.22476 4.60783C1.21114 5.6797 0.508004 7.00699 0.190582 8.44768C-0.12684 9.88837 -0.0466065 11.3882 0.422701 12.7869C0.892009 14.1855 1.73273 15.4302 2.85492 16.3878C3.9771 17.3454 5.33853 17.9799 6.79353 18.2234C8.24854 18.467 9.74237 18.3103 11.1152 17.7703C12.4881 17.2302 13.6882 16.3271 14.5874 15.1575C14.3883 15.2275 14.1848 15.291 13.9792 15.3501C10.2489 16.3871 6.52731 15.0919 4.92799 12.414Z" fill="white"/>
<defs>
<linearGradient id="paint0_linear_2280_440" x1="11.684" y1="6.52414" x2="13.2637" y2="19.7191" gradientUnits="userSpaceOnUse">
<stop stop-color="#F88B26"/>
<stop offset="1" stop-color="#F84F26"/>
</linearGradient>
<linearGradient id="paint1_linear_2280_440" x1="12.3929" y1="6.43892" x2="13.9726" y2="19.6339" gradientUnits="userSpaceOnUse">
<stop stop-color="#F88B26"/>
<stop offset="1" stop-color="#F84F26"/>
</linearGradient>
</defs>
</svg>
