<svg width="165" height="20" viewBox="0 0 165 20" fill="none" xmlns="http://www.w3.org/2000/svg">
<path d="M30.4434 15.0154C29.2846 15.0154 28.2977 14.7966 27.4827 14.3588C26.7014 13.9497 26.0584 13.3187 25.6345 12.5453C25.201 11.7263 24.983 10.8105 25.001 9.88402C24.989 8.96281 25.2476 8.05832 25.7446 7.28259C26.2413 6.50921 26.9256 5.87407 27.7338 5.43629C28.5842 4.9716 29.5401 4.73412 30.509 4.74682C31.879 4.74682 33.0049 5.14402 33.8868 5.93842C34.7688 6.73282 35.3405 7.88064 35.6018 9.38189L28.1703 11.7419L27.4924 10.081L32.871 8.26754L32.2356 8.55144C32.1184 8.17144 31.9041 7.8286 31.6137 7.55684C31.3137 7.27229 30.8631 7.13002 30.2618 7.13002C29.8428 7.12144 29.4298 7.23122 29.0702 7.44675C28.7255 7.66182 28.4515 7.97342 28.2823 8.34286C28.0917 8.77296 27.9987 9.23992 28.01 9.71021C27.992 10.2288 28.1049 10.7435 28.3383 11.207C28.5405 11.5916 28.8524 11.9075 29.2344 12.1146C29.6246 12.3206 30.0602 12.4255 30.5013 12.4198C30.831 12.4195 31.1579 12.3607 31.467 12.246C31.7908 12.1234 32.102 11.9694 32.3959 11.7863L33.7478 14.0594C33.2264 14.3558 32.6722 14.5904 32.0966 14.7586C31.5606 14.9228 31.0039 15.0094 30.4434 15.0154Z" fill="white"/>
<path d="M40.6734 14.9496C39.9214 14.9558 39.1754 14.8147 38.4775 14.5344C37.8281 14.2769 37.2424 13.8816 36.7606 13.3756L38.0295 11.6935C38.4136 12.0605 38.852 12.366 39.3292 12.5993C39.8691 12.8758 40.4917 12.9445 41.079 12.7924C41.2528 12.7526 41.414 12.6703 41.5483 12.5529C41.6059 12.4982 41.6511 12.4318 41.6811 12.3582C41.7111 12.2846 41.725 12.2055 41.7221 12.1261C41.7252 12.0111 41.7001 11.8971 41.6489 11.794C41.5978 11.691 41.5221 11.6021 41.4285 11.5351C41.1986 11.3742 40.9433 11.2528 40.6734 11.1759C40.3683 11.0819 40.0406 10.9834 39.6904 10.8804C38.8149 10.6036 38.1846 10.1993 37.7996 9.66759C37.4236 9.16614 37.2203 8.55624 37.2203 7.92944C37.2266 7.37916 37.3798 6.84056 37.664 6.3693C37.9481 5.89804 38.353 5.51122 38.8367 5.24882C39.3968 4.92308 40.1217 4.75956 41.0114 4.75828C41.6971 4.74366 42.3815 4.82426 43.045 4.99776C43.6117 5.16491 44.144 5.43173 44.6171 5.78572L43.4583 7.57794C43.1728 7.35441 42.8608 7.16695 42.5293 7.01981C42.2299 6.87892 41.9072 6.79383 41.5772 6.76874C41.3515 6.75013 41.1244 6.77976 40.9109 6.85565C40.7486 6.91589 40.6024 7.01309 40.4841 7.13955C40.3886 7.24047 40.3342 7.37338 40.3316 7.51228C40.3203 7.63984 40.3438 7.76808 40.3995 7.88335C40.4553 7.99863 40.5413 8.09664 40.6483 8.16698C40.91 8.34449 41.2029 8.47095 41.5116 8.53972C41.8611 8.62663 42.2049 8.73285 42.539 8.84486C42.97 8.97395 43.3766 9.17365 43.7422 9.43583C44.063 9.66879 44.327 9.97115 44.5147 10.3204C44.707 10.7033 44.8012 11.128 44.7889 11.5564C44.79 12.1363 44.6352 12.706 44.3409 13.2057C44.019 13.7448 43.55 14.181 42.989 14.4629C42.2685 14.8121 41.4734 14.9792 40.6734 14.9496Z" fill="white"/>
<path d="M53.0664 15.0155C52.4947 15.0143 51.9283 14.9069 51.3959 14.6987C50.8761 14.5058 50.4081 14.1951 50.0285 13.791L50.1173 12.8949V19.3473H47.0775V4.98246H49.7002L50.1386 6.84035L49.8972 6.18372C50.3996 5.75903 50.9586 5.4061 51.5581 5.13504C52.2284 4.84652 52.9528 4.70493 53.6825 4.71981C54.5189 4.70624 55.3431 4.92197 56.0657 5.34361C56.7762 5.77079 57.3493 6.39279 57.7169 7.13584C58.1381 8.0106 58.3441 8.97339 58.3176 9.94392C58.347 10.9066 58.1126 11.8589 57.6397 12.6979C57.2026 13.4428 56.5566 14.0431 55.7818 14.4245C54.9355 14.8317 54.0054 15.0342 53.0664 15.0155ZM52.4561 12.611C52.9313 12.6152 53.4002 12.5025 53.8215 12.2827C54.2332 12.0675 54.5804 11.7469 54.8277 11.3537C55.0864 10.9458 55.2206 10.4713 55.214 9.98834C55.2255 9.49681 55.1083 9.01081 54.8741 8.5785C54.6579 8.18674 54.3395 7.86094 53.9528 7.6358C53.5661 7.41066 53.1256 7.29461 52.6782 7.3C52.3104 7.29334 51.9441 7.34884 51.5948 7.46416C51.2891 7.56835 51.0069 7.73175 50.7643 7.94504C50.5115 8.17206 50.301 8.44212 50.1425 8.74266V11.0814C50.2548 11.3811 50.4255 11.6555 50.6446 11.8887C50.8669 12.1252 51.1394 12.3087 51.4422 12.4256C51.7655 12.5508 52.1095 12.6137 52.4561 12.611Z" fill="white"/>
<path d="M59.7119 9.85673C59.6968 8.93582 59.9354 8.02851 60.4014 7.23406C60.8629 6.45795 61.5317 5.82593 62.3327 5.409C63.2169 4.95158 64.2013 4.72191 65.1967 4.74078C66.1853 4.71634 67.1636 4.94644 68.0377 5.409C68.8151 5.82876 69.4563 6.46199 69.8859 7.23406C70.3233 8.03809 70.5455 8.94153 70.5309 9.85673C70.5445 10.7755 70.3225 11.6825 69.8859 12.491C69.4564 13.2685 68.8156 13.9086 68.0377 14.3373C67.1509 14.8096 66.1566 15.0432 65.1523 15.0152C64.1814 15.0322 63.2199 14.8225 62.3442 14.403C61.5424 14.0123 60.8714 13.397 60.413 12.632C59.9281 11.7891 59.6855 10.8287 59.7119 9.85673ZM62.802 9.87798C62.7941 10.3465 62.8987 10.8101 63.1071 11.2299C63.2964 11.6141 63.5826 11.9422 63.9375 12.182C64.2876 12.4143 64.6994 12.536 65.1195 12.5316C65.5603 12.5423 65.9943 12.4205 66.3652 12.182C66.717 11.9447 66.9969 11.6153 67.1744 11.2299C67.3622 10.8039 67.4592 10.3435 67.4592 9.87798C67.4592 9.41245 67.3622 8.95204 67.1744 8.52608C66.9942 8.14599 66.7146 7.82167 66.3652 7.58748C65.9947 7.34806 65.5605 7.22621 65.1195 7.23792C64.6993 7.23247 64.2872 7.35433 63.9375 7.58748C63.5853 7.82454 63.2995 8.14761 63.1071 8.52608C62.8949 8.9468 62.7875 9.4126 62.7942 9.88377L62.802 9.87798Z" fill="white"/>
<path d="M75.4287 5.2007L75.7126 7.82338L75.6469 7.43712C75.9174 6.87642 76.3054 6.38046 76.7844 5.98287C77.2187 5.61234 77.6998 5.30065 78.2155 5.05586C78.551 4.87647 78.9185 4.76491 79.297 4.72754L79.1445 7.78862C78.5102 7.68456 77.8595 7.8084 77.3078 8.13818C76.8082 8.4473 76.4007 8.88482 76.1278 9.4051C75.8584 9.90221 75.7158 10.4581 75.7126 11.0235V14.7605H72.6747V5.2007H75.4287Z" fill="white"/>
<path d="M82.2693 1H85.3304V5.15225H87.6479V7.53544H85.3304V14.7488H82.2693V7.53931H80.7842V5.15611H82.2693V1Z" fill="white"/>
<path d="M92.8276 14.9496C92.0749 14.956 91.3283 14.8149 90.6298 14.5344C89.9808 14.2772 89.3956 13.8817 88.9148 13.3756L90.1817 11.6935C90.5669 12.06 91.0059 12.3655 91.4834 12.5993C92.0199 12.8733 92.638 12.942 93.2215 12.7924C93.3961 12.753 93.5581 12.6707 93.6928 12.5529C93.7504 12.4982 93.7957 12.4318 93.8256 12.3582C93.8556 12.2846 93.8696 12.2055 93.8666 12.1261C93.8699 12.0109 93.8446 11.8966 93.7931 11.7935C93.7415 11.6904 93.6653 11.6016 93.5711 11.5351C93.3418 11.3742 93.0873 11.2528 92.8179 11.1759C92.5108 11.0813 92.1844 10.9828 91.8349 10.8804C90.9607 10.6036 90.3304 10.1993 89.9442 9.66759C89.5681 9.16614 89.3648 8.55624 89.3648 7.92944C89.3723 7.37942 89.526 6.8413 89.8101 6.37025C90.0941 5.89919 90.4983 5.51216 90.9813 5.24882C91.5439 4.92308 92.2694 4.75956 93.1578 4.75828C93.8429 4.74366 94.5266 4.82426 95.1895 4.99776C95.757 5.16446 96.29 5.43131 96.7635 5.78572L95.6047 7.57794C95.3195 7.35399 95.0075 7.1665 94.6758 7.01981C94.3771 6.87877 94.055 6.79368 93.7256 6.76874C93.4999 6.75013 93.2727 6.77976 93.0593 6.85565C92.8967 6.91537 92.7505 7.01264 92.6325 7.13954C92.537 7.24047 92.4826 7.37338 92.4799 7.51228C92.4687 7.63984 92.4922 7.76808 92.5479 7.88335C92.6037 7.99863 92.6897 8.09664 92.7967 8.16698C93.0584 8.34448 93.3513 8.47095 93.6599 8.53972C94.0089 8.62727 94.3513 8.72898 94.6874 8.84486C95.1178 8.97395 95.5237 9.17366 95.8886 9.43583C96.2286 9.67272 96.5032 9.99168 96.6868 10.3631C96.8705 10.7345 96.9573 11.1463 96.9393 11.5602C96.9393 12.1401 96.7847 12.7094 96.4912 13.2096C96.1693 13.7487 95.7004 14.1849 95.1393 14.4668C94.4197 14.814 93.626 14.9797 92.8276 14.9496Z" fill="white"/>
<path d="M103.778 19.2332C103.18 19.2431 102.583 19.1663 102.007 19.0053C101.516 18.8596 101.048 18.6422 100.62 18.3602C100.199 18.0781 99.8009 17.7637 99.4288 17.4197L100.609 16.0427C101.043 16.4614 101.536 16.8147 102.073 17.0914C102.59 17.3444 103.16 17.4721 103.736 17.4641C104.333 17.4818 104.927 17.3657 105.474 17.1242C105.919 16.9228 106.295 16.5959 106.557 16.1837C106.809 15.7657 106.938 15.285 106.928 14.797L106.949 12.3482L107.125 12.7344C106.829 13.3986 106.332 13.9527 105.703 14.3181C104.952 14.7662 104.087 14.99 103.212 14.9631C102.406 14.9702 101.615 14.7507 100.927 14.3297C99.855 13.6402 99.0882 12.5654 98.7852 11.327C98.4823 10.0886 98.6663 8.78112 99.2994 7.67447C99.7218 6.96642 100.316 6.376 101.026 5.95757C101.733 5.53682 102.542 5.31775 103.365 5.32411C104.126 5.31892 104.878 5.49152 105.561 5.82817C106.157 6.09631 106.661 6.5326 107.013 7.0835L106.905 7.45624L107.123 5.7065H108.981V14.8221C108.988 15.611 108.768 16.3853 108.347 17.0528C107.907 17.738 107.287 18.2896 106.555 18.648C105.689 19.0604 104.737 19.261 103.778 19.2332ZM100.674 10.1407C100.669 10.6999 100.812 11.2506 101.09 11.736C101.361 12.2114 101.755 12.6055 102.231 12.8772C102.706 13.1489 103.246 13.2883 103.793 13.281C104.294 13.2893 104.79 13.1884 105.248 12.9855C105.664 12.7995 106.033 12.5231 106.329 12.1763C106.622 11.8316 106.832 11.4238 106.941 10.9847V9.19246C106.815 8.76453 106.591 8.37182 106.287 8.04528C105.981 7.71386 105.608 7.45064 105.194 7.27277C104.75 7.0871 104.274 6.99441 103.793 7.00046C103.241 6.99079 102.696 7.12383 102.21 7.38671C101.741 7.64517 101.351 8.02723 101.084 8.4914C100.8 8.99365 100.658 9.56392 100.674 10.1407Z" fill="white"/>
<path d="M114.052 5.70259L114.245 8.32719L114.137 7.9757C114.363 7.43431 114.71 6.95244 115.153 6.5678C115.571 6.19849 116.043 5.89561 116.553 5.66975C116.954 5.4795 117.389 5.37179 117.832 5.35303L117.724 7.37314C117.097 7.31448 116.468 7.44929 115.92 7.7594C115.413 8.05548 114.992 8.4772 114.695 8.98383C114.401 9.48003 114.246 10.0465 114.247 10.6235V14.7545H112.237V5.70259H114.052Z" fill="white"/>
<path d="M123.734 14.9709C122.932 14.9812 122.14 14.7935 121.428 14.4243C120.736 14.0614 120.166 13.5025 119.79 12.8175C119.389 12.0085 119.182 11.1166 119.188 10.2134C119.193 9.31017 119.41 8.4208 119.821 7.61658C120.219 6.90583 120.806 6.31945 121.517 5.92284C122.225 5.52909 123.024 5.32549 123.834 5.33187C124.59 5.30709 125.336 5.50886 125.976 5.91126C126.52 6.25765 126.977 6.72492 127.311 7.27667L127.179 7.62623L127.372 5.69495H129.252V14.7449H127.231V12.3946L127.452 12.9179C127.352 13.1225 127.222 13.3107 127.065 13.4761C126.83 13.7356 126.566 13.967 126.277 14.1655C125.93 14.4084 125.551 14.6033 125.152 14.7449C124.696 14.9027 124.216 14.9791 123.734 14.9709ZM124.28 13.2887C124.755 13.2963 125.225 13.1993 125.657 13.0048C126.055 12.8238 126.404 12.5503 126.675 12.2072C126.953 11.8433 127.143 11.4204 127.231 10.9712V9.20022C127.121 8.77519 126.912 8.38217 126.621 8.05304C126.33 7.72316 125.972 7.45969 125.571 7.28053C125.144 7.09541 124.683 7.00261 124.219 7.00822C123.698 7.00113 123.185 7.13456 122.734 7.39448C122.282 7.65635 121.909 8.03364 121.652 8.48758C121.373 8.98823 121.233 9.55431 121.246 10.1272C121.241 10.6864 121.384 11.2371 121.662 11.7225C121.928 12.1927 122.313 12.585 122.778 12.86C123.23 13.1378 123.75 13.2861 124.28 13.2887Z" fill="white"/>
<path d="M136.194 15.0153L131.173 5.70264H133.578L136.986 12.8947L135.741 12.8503L138.867 5.70456H141.14L136.312 15.0172L136.194 15.0153Z" fill="white"/>
<path d="M142.904 2.42537C142.902 2.27004 142.937 2.11649 143.004 1.97631C143.071 1.83613 143.168 1.71298 143.29 1.61616C143.521 1.40708 143.82 1.29022 144.132 1.28784C144.438 1.28779 144.731 1.40536 144.953 1.61616C145.068 1.71686 145.159 1.84141 145.222 1.98116C145.284 2.12091 145.314 2.27249 145.312 2.42537C145.317 2.57997 145.287 2.73369 145.225 2.87534C145.163 3.01698 145.07 3.143 144.953 3.24423C144.729 3.44947 144.436 3.56259 144.132 3.56096C143.82 3.55949 143.52 3.44251 143.29 3.23264C143.168 3.13621 143.071 3.01342 143.004 2.87355C142.937 2.73368 142.902 2.58042 142.904 2.42537ZM143.058 5.70854H145.09V14.7585H143.058V5.70854Z" fill="white"/>
<path d="M149.221 1.72632H151.254V5.74724H153.748V7.34247H151.256V14.7528H149.221V7.34247H147.568V5.74724H149.229L149.221 1.72632Z" fill="white"/>
<path d="M158.927 14.8183L154.576 5.70264H156.873L160.523 13.7908L158.927 14.8183ZM156.697 19.1018L162.664 5.70264H164.544L158.707 19.1018H156.697Z" fill="white"/>
<path d="M8.22722 1.55551C6.51311 1.55065 4.83676 2.05889 3.41394 3.01482C4.49014 1.95133 5.78459 1.13441 7.20768 0.620599C8.63078 0.106784 10.1485 -0.0916541 11.6559 0.0390225C13.1633 0.169699 14.6242 0.62637 15.9377 1.37742C17.2511 2.12847 18.3856 3.15597 19.2628 4.38879L15.6681 5.79777C14.9039 4.50457 13.8156 3.43307 12.5107 2.68909C11.2058 1.94512 9.72934 1.55439 8.22722 1.55551Z" fill="url(#paint0_linear_2280_440)"/>
<path d="M20.5865 7.1106L8.70641 11.576L16.7884 11.4032C16.6112 12.6516 16.1634 13.8463 15.4764 14.9036C14.7893 15.961 13.8796 16.8555 12.8108 17.5246C11.742 18.1937 10.54 18.6212 9.28875 18.7774C8.0375 18.9335 6.76725 18.8144 5.56683 18.4284C7.15152 19.3321 8.94528 19.8051 10.7696 19.8002C16.4186 19.8002 21 15.3676 21 9.90011C21.0006 8.95496 20.8612 8.01493 20.5865 7.1106Z" fill="url(#paint1_linear_2280_440)"/>
<path d="M4.92799 12.414L14.5874 8.66834L4.12505 9.64194C4.0441 6.50018 6.54919 3.41968 10.2904 2.352C8.86781 1.9615 7.36578 1.96512 5.94506 2.36247C4.52434 2.75982 3.23838 3.53595 2.22476 4.60783C1.21114 5.6797 0.508004 7.00699 0.190582 8.44768C-0.12684 9.88837 -0.0466065 11.3882 0.422701 12.7869C0.892009 14.1855 1.73273 15.4302 2.85492 16.3878C3.9771 17.3454 5.33853 17.9799 6.79353 18.2234C8.24854 18.467 9.74237 18.3103 11.1152 17.7703C12.4881 17.2302 13.6882 16.3271 14.5874 15.1575C14.3883 15.2275 14.1848 15.291 13.9792 15.3501C10.2489 16.3871 6.52731 15.0919 4.92799 12.414Z" fill="white"/>
<defs>
<linearGradient id="paint0_linear_2280_440" x1="11.684" y1="6.52414" x2="13.2637" y2="19.7191" gradientUnits="userSpaceOnUse">
<stop stop-color="#F88B26"/>
<stop offset="1" stop-color="#F84F26"/>
</linearGradient>
<linearGradient id="paint1_linear_2280_440" x1="12.3929" y1="6.43892" x2="13.9726" y2="19.6339" gradientUnits="userSpaceOnUse">
<stop stop-color="#F88B26"/>
<stop offset="1" stop-color="#F84F26"/>
</linearGradient>
</defs>
</svg>
