<svg width="512" height="512" viewBox="0 0 512 512" fill="none" xmlns="http://www.w3.org/2000/svg">
<rect width="512" height="512" rx="25" fill="#080F18"/>
<path d="M227.47 153.185C206.329 153.125 185.654 159.393 168.106 171.183C181.379 158.066 197.344 147.991 214.896 141.654C232.447 135.317 251.166 132.87 269.757 134.481C288.348 136.093 306.367 141.725 322.566 150.988C338.765 160.251 352.758 172.924 363.576 188.129L319.242 205.506C309.817 189.556 296.394 176.341 280.3 167.166C264.206 157.99 245.996 153.171 227.47 153.185Z" fill="url(#paint0_linear_2284_478)"/>
<path d="M379.9 221.696L233.379 276.77L333.057 274.638C330.871 290.035 325.349 304.769 316.875 317.81C308.402 330.851 297.182 341.883 284 350.135C270.819 358.388 255.993 363.661 240.561 365.586C225.129 367.512 209.463 366.043 194.657 361.282C214.202 372.429 236.325 378.262 258.825 378.201C328.496 378.201 385 323.532 385 256.1C385.007 244.443 383.289 232.849 379.9 221.696Z" fill="url(#paint1_linear_2284_478)"/>
<path d="M186.779 287.105L305.912 240.909L176.876 252.916C175.877 214.168 206.774 176.175 252.916 163.007C235.37 158.191 216.845 158.235 199.323 163.136C181.8 168.037 165.94 177.609 153.439 190.829C140.937 204.049 132.265 220.419 128.351 238.187C124.436 255.956 125.425 274.454 131.213 291.704C137.001 308.953 147.37 324.305 161.211 336.115C175.051 347.926 191.842 355.752 209.787 358.755C227.732 361.758 246.156 359.826 263.088 353.166C280.02 346.505 294.822 335.367 305.912 320.942C303.456 321.806 300.947 322.588 298.41 323.317C252.403 336.107 206.504 320.133 186.779 287.105Z" fill="white"/>
<defs>
<linearGradient id="paint0_linear_2284_478" x1="270.104" y1="214.465" x2="289.587" y2="377.203" gradientUnits="userSpaceOnUse">
<stop stop-color="#F88B26"/>
<stop offset="1" stop-color="#F84F26"/>
</linearGradient>
<linearGradient id="paint1_linear_2284_478" x1="278.846" y1="213.412" x2="298.329" y2="376.15" gradientUnits="userSpaceOnUse">
<stop stop-color="#F88B26"/>
<stop offset="1" stop-color="#F84F26"/>
</linearGradient>
</defs>
</svg>
